<svg xmlns="http://www.w3.org/2000/svg" width="28" height="28" fill="none"><path fill="#359740" d="M23.816 25.86a.75.75 0 0 0-.22-1.033c-.81-.526-1.751-1.142-2.763-1.838.394-1.582.648-3.196.76-4.822.162-2.875-.33-5.185-1.467-6.999-2.212-3.504-6.426-4.364-9.817-5.059-2.085-.425-4.052-.821-4.856-1.722a.75.75 0 0 0-1.298.384c-.093.453-1.557 10.846 3.937 16.306 2.708 2.684 6.607 3.677 11.602 2.945 1.125.814 2.169 1.474 3.089 2.059a.75.75 0 0 0 1.033-.22M9.135 20.018C5.253 16.18 5.34 9.163 5.503 6.29a17.5 17.5 0 0 0 4.505 1.298c3.272.665 6.975 1.422 8.85 4.38 1.432 2.282 1.643 5.597.647 10.084-3.938-2.835-8.38-6.705-9.76-11.137a.75.75 0 0 0-1.428.445c1.415 4.585 5.633 8.442 9.545 11.35-3.722.249-6.643-.652-8.712-2.698z"/></svg>