<svg xmlns="http://www.w3.org/2000/svg" width="32" height="32" fill="none"><path fill="#359740" d="M9.007 12.245a4.5 4.5 0 0 1-1.843.625 2.56 2.56 0 0 1-1.202-.136 2.26 2.26 0 0 1-1.255-1.207.53.53 0 0 1-.005-.426c.242-.587.65-.998 1.22-1.244.341-.148.761-.205 1.198-.173.902.073 1.728.414 2.523 1.017l.431-.008c.09-.37.286-.711.56-.993l-.225-.377c-.935-.357-1.66-.884-2.188-1.615A2.5 2.5 0 0 1 7.74 6.6a2.24 2.24 0 0 1 .419-1.688.53.53 0 0 1 .363-.216 2.24 2.24 0 0 1 1.684.434c.302.225.559.55.746.95.387.815.506 1.703.375 2.696l.225.376c.375-.111.77-.117 1.14-.02l.212-.375c-.155-.99-.063-1.88.3-2.7.177-.404.426-.74.723-.972a2.24 2.24 0 0 1 1.674-.481c.145.013.277.09.372.207.385.5.542 1.065.465 1.678-.047.37-.2.76-.452 1.122-.37.538-.843.976-1.427 1.324a6 6 0 0 1-.722.355l-.211.376c.134.131.262.273.363.443s.165.35.217.53l.438-.006c.776-.63 1.593-.993 2.495-1.088.438-.05.854.001 1.202.136.57.226.994.634 1.255 1.207a.55.55 0 0 1 .005.426 2.23 2.23 0 0 1-1.215 1.241c-.342.148-.757.203-1.198.173-.903-.072-1.729-.414-2.52-1.02l-.43.008a2.16 2.16 0 0 1-.554.983c.08.134.164.264.243.397.92.361 1.634.882 2.162 1.6a2.5 2.5 0 0 1 .48 1.109c.057.377.013.732-.108 1.072.396.549.794 1.07 1.183 1.567.045-.394.161-.774.36-1.141.425-.79 1.148-1.364 2.081-1.646a4.7 4.7 0 0 1 2.243-.123.53.53 0 0 1 .294.89c-.374.397-.848 1.115-.954 1.826-.165 1.112-.778 1.765-1.463 2.172a5 5 0 0 1-.622.303c1.687 1.808 3.24 3.012 4.541 3.493a.536.536 0 1 1-.372 1.006c-.937-.35-1.899-.972-2.844-1.753l-.078.046a9.5 9.5 0 0 1-1.294.952c-.9.537-1.972.89-3.211.639-.884-.177-2.07.057-2.817.309a.52.52 0 0 1-.57-.152.54.54 0 0 1-.077-.59 7.3 7.3 0 0 1 1.758-2.261c.948-.833 2.028-1.34 3.122-1.469.192-.021.378-.032.566-.032l-.058-.065a43 43 0 0 1-2.503-3.134 2.2 2.2 0 0 1-1.641-.435 2.5 2.5 0 0 1-.746-.949c-.387-.815-.505-1.704-.38-2.694l-.224-.376c-.376.111-.77.117-1.14.02l-.212.375c.155.99.062 1.88-.301 2.7a2.5 2.5 0 0 1-.722.972 2.22 2.22 0 0 1-1.67.478.56.56 0 0 1-.372-.207 2.22 2.22 0 0 1-.465-1.677c.047-.37.2-.76.452-1.122.515-.744 1.223-1.29 2.144-1.677l.214-.383a2.2 2.2 0 0 1-.364-.443 2.2 2.2 0 0 1-.216-.53l-.432.007a6 6 0 0 1-.665.472M7.033 10.75a1.5 1.5 0 0 0-.693.09 1.1 1.1 0 0 0-.54.452c.135.206.318.345.556.44.187.075.427.1.695.071a3.46 3.46 0 0 0 1.523-.546 3.44 3.44 0 0 0-1.54-.507M15.1 7.008a1.5 1.5 0 0 0 .268-.646 1.17 1.17 0 0 0-.123-.698 1.1 1.1 0 0 0-.655.26c-.156.123-.3.321-.409.566a3.46 3.46 0 0 0-.29 1.593c.508-.278.901-.63 1.209-1.075m2.164 4.654c.268.021.506-.008.694-.09a1.2 1.2 0 0 0 .54-.452 1.1 1.1 0 0 0-.553-.436 1.5 1.5 0 0 0-.696-.07 3.45 3.45 0 0 0-1.523.546 3.45 3.45 0 0 0 1.538.502m3.35 6.433c.082-.56.318-1.105.598-1.564-.274.02-.544.069-.819.151-.457.142-1.089.45-1.456 1.13-.214.401-.432 1.03-.013 2.024 1.076-.367 1.557-.865 1.69-1.74m-11.415-2.69a1.5 1.5 0 0 0-.269.646c-.029.254.007.482.124.698a1.1 1.1 0 0 0 .654-.259c.157-.124.3-.322.41-.567a3.5 3.5 0 0 0 .289-1.592c-.507.277-.9.63-1.208 1.074m.366-9.412a1.13 1.13 0 0 0-.666-.239 1.2 1.2 0 0 0-.106.699c.031.199.132.42.287.638a3.44 3.44 0 0 0 1.233 1.045 3.4 3.4 0 0 0-.333-1.582 1.44 1.44 0 0 0-.415-.561m8.3 16.013c-.878.105-1.76.526-2.546 1.212-.306.27-.58.552-.822.857.676-.11 1.405-.14 2.04-.014 1.132.228 2.194-.163 3.539-1.3-.572-.637-1.27-.868-2.212-.755m-3.13-5.586c.202.153.417.23.664.239a1.16 1.16 0 0 0 .107-.699 1.6 1.6 0 0 0-.287-.638 3.44 3.44 0 0 0-1.233-1.045c-.01.578.097 1.093.332 1.582.11.246.256.439.416.561m-2.038-4.295c.505-.301.672-.96.37-1.466a1.073 1.073 0 0 0-1.465-.371 1.07 1.07 0 0 0-.371 1.466c.3.505.96.672 1.466.371"/></svg>