<svg xmlns="http://www.w3.org/2000/svg" width="28" height="28" fill="none"><g fill="#359740" clip-path="url(#a)"><path d="M22.386 9.176a7.82 7.82 0 0 0-5.294-3.441.7.7 0 0 0-.078-.441.72.72 0 0 0-.77-.345l-4.324.862-.599-1.78a.7.7 0 0 0-.598-.468.72.72 0 0 0-.692.338l-1.29 2.13c-.876-.648-1.951-1.09-3.042-1.09a.703.703 0 0 0-.712.69c0 .38.32.69.712.69.827 0 1.653.386 2.309.903L3.883 9.886a.67.67 0 0 0-.285.772.7.7 0 0 0 .676.49h1.903l-1.169 3.95a.68.68 0 0 0 .32.78c.115.069.243.09.371.09.015 2.254 1.048 4.44 2.95 5.846 2.815 2.076 6.911 3.13 12.184 3.13q.3.002.598-.006c1.653-.028 3.057-1.248 3.264-2.84.677-5.207-.1-9.55-2.309-12.922m.898 12.749c-.121.917-.92 1.62-1.867 1.634-5.237.076-9.241-.876-11.899-2.84-1.866-1.38-2.7-3.69-2.287-5.91l1.026-.958c-.94 2.275-.263 4.874 1.696 6.322 2.43 1.793 6.092 2.703 10.88 2.703q.287.002.584-.007a.7.7 0 0 0 .698-.703.7.7 0 0 0-.712-.676h-.014c-4.738.083-8.301-.744-10.567-2.413-1.524-1.124-1.995-3.227-1.111-4.992l1.845 2.317a.71.71 0 0 0 .556.262.8.8 0 0 0 .228-.035.69.69 0 0 0 .484-.655v-4.91l5.073-.613a.71.71 0 0 0 .62-.593.69.69 0 0 0-.434-.73l-3.007-1.194.912-.917a6.35 6.35 0 0 1 5.194 2.89c2.024 3.102 2.736 7.143 2.102 12.018M8.94 8.272c.015-.007.015-.014.022-.02.192.296.299.586.299.827 0 .38.32.69.712.69s.713-.31.713-.69c0-.655-.342-1.393-.898-2.062l.663-1.096.306.91c.114.338.47.531.82.462l2.686-.538-.955.959a.68.68 0 0 0-.185.62c.05.221.206.407.427.497l1.468.579-3 .365a.7.7 0 0 0-.62.683v3.489l-1.78-2.24a.7.7 0 0 0-.514-.27h-.05a.74.74 0 0 0-.498.193l-1.44 1.352.691-2.345a.64.64 0 0 0-.114-.593.73.73 0 0 0-.57-.275h-.498z"/><path d="M15.17 13.705a.743.743 0 0 0 1.01 0 .67.67 0 0 0 0-.972l-.712-.69a.726.726 0 0 0-1.004 0 .67.67 0 0 0 0 .973zm4.274-.689a.743.743 0 0 0 1.012 0 .67.67 0 0 0 0-.973l-.713-.689a.726.726 0 0 0-1.004 0 .67.67 0 0 0 0 .972zm-3.264 4.537-.712-.69a.726.726 0 0 0-1.004 0 .67.67 0 0 0 0 .973l.712.689a.7.7 0 0 0 .499.207.74.74 0 0 0 .506-.2.68.68 0 0 0 0-.98m1.839-1.089a.743.743 0 0 0 1.01 0 .67.67 0 0 0 0-.972l-.712-.69a.726.726 0 0 0-1.004 0 .67.67 0 0 0 0 .973zm2.85 0 .712.69a.74.74 0 0 0 1.011 0 .67.67 0 0 0 0-.972l-.712-.69a.726.726 0 0 0-1.005 0 .665.665 0 0 0-.007.972m-1.126 1.779a.726.726 0 0 0-1.004 0 .67.67 0 0 0 0 .973l.712.69a.7.7 0 0 0 .499.206.74.74 0 0 0 .506-.2.67.67 0 0 0 0-.972z"/></g><defs><clipPath id="a"><path fill="#fff" d="M3.563 3.563h21.375v21.375H3.563z"/></clipPath></defs></svg>