<svg xmlns="http://www.w3.org/2000/svg" width="28" height="28" fill="none"><path fill="#359740" d="M17.983 19.768c-.15 0-.308-.02-.479-.072a3.31 3.31 0 0 0-3.274.939 1.78 1.78 0 0 1-1.313.577c-.984 0-1.785-.8-1.785-1.785 0-.072.013-.164.026-.275a3.26 3.26 0 0 0-.597-2.448 3.33 3.33 0 0 0-2.152-1.306 1.07 1.07 0 0 1-.9-1.044c0-.269.1-.511.283-.715.643-.696.958-1.64.853-2.586a3.3 3.3 0 0 0-1.398-2.33.66.66 0 0 0-.912.165.65.65 0 0 0 .164.912c.466.328.774.833.84 1.404a1.97 1.97 0 0 1-.512 1.556c-.289.315-.63.846-.63 1.608 0 1.161.866 2.165 2.015 2.342.512.08.984.361 1.293.781.308.427.44.945.354 1.47-.033.19-.04.341-.04.473a3.1 3.1 0 0 0 3.098 3.097c.873 0 1.68-.354 2.277-1.004a2 2 0 0 1 1.97-.564q.422.118.826.118c.36 0 .656-.295.656-.656a.67.67 0 0 0-.663-.657"/><path fill="#359740" d="M21.724 21.39a5.04 5.04 0 0 0 1.326-3.407c0-.675-.283-1.424-.519-2.014 1.116-.932 1.969-2.218 1.969-3.78a5.065 5.065 0 0 0-5.066-5.066c-.565 0-.985.144-1.497.314-.511-1.824-2.31-3.215-4.298-3.215-.932 0-1.555.092-2.264.59-.794-.925-2.212-1.312-3.53-1.312A4.34 4.34 0 0 0 3.5 7.844c0 1.484.833 2.75 1.969 3.531-.716.774-1.247 1.85-1.247 2.986 0 2.172 1.785 3.911 3.872 4.233-.04.256-.25.57-.25.84a5.065 5.065 0 0 0 5.067 5.066c1.47 0 2.782-.965 3.714-1.969.36.27.892.519 1.358.519 1.011 0 1.95-.302 2.737-.808.486.69.906 1.34 1.24 1.923a.66.66 0 0 0 .9.25.65.65 0 0 0 .242-.893c-.374-.65-.84-1.371-1.378-2.133m-4.318.091a1.27 1.27 0 0 0-.781-.262c-.354 0-.709.144-.965.42-.531.577-1.6 1.549-2.75 1.549a3.76 3.76 0 0 1-3.753-3.656c.013-.033.026-.059.04-.092.071-.17.157-.387.196-.65a1.33 1.33 0 0 0-.236-.977 1.35 1.35 0 0 0-.866-.519c-1.352-.203-2.757-1.358-2.757-2.933 0-.702.335-1.49.9-2.1.255-.282.38-.656.34-1.037a1.27 1.27 0 0 0-.557-.932c-.893-.61-1.404-1.51-1.404-2.448a3.033 3.033 0 0 1 3.031-3.032c1.11 0 2.08.329 2.533.854.263.301.63.459.998.459.262 0 .525-.079.755-.243.393-.275.702-.348 1.51-.348 1.364 0 2.67.972 3.037 2.258.099.348.335.636.65.807a1.33 1.33 0 0 0 1.03.085l.033-.013c.473-.157.716-.236 1.037-.236a3.757 3.757 0 0 1 3.754 3.754c0 1.253-.814 2.198-1.496 2.77-.44.367-.59.97-.374 1.502.137.341.426 1.043.426 1.522 0 .873-.302 1.68-.807 2.317a68 68 0 0 0-2.94-3.636l2.5-4.994a.65.65 0 0 0-.295-.88.65.65 0 0 0-.88.296l-2.257 4.509a95 95 0 0 0-3.071-3.308l.656-4.088a.659.659 0 0 0-1.3-.21l-.505 3.143a47 47 0 0 0-2.12-2.008V7.437a.66.66 0 0 0-.655-.656.66.66 0 0 0-.657.657v.564c-.67-.532-1.24-.932-1.673-1.149a.65.65 0 0 0-.88.29.65.65 0 0 0 .29.879c.577.288 1.43.938 2.44 1.83q.028.02.046.04c1.057.932 2.29 2.126 3.57 3.452H9.406A.66.66 0 0 0 8.75 14c0 .36.295.656.656.656h4.955c.026 0 .046-.013.072-.013a105 105 0 0 1 1.982 2.199l-3.905 1.122a.65.65 0 0 0-.446.814.646.646 0 0 0 .807.446l4.482-1.287a69 69 0 0 1 2.593 3.242 3.73 3.73 0 0 1-1.97.565c-.071-.007-.32-.086-.57-.263"/></svg>