<svg xmlns="http://www.w3.org/2000/svg" width="45" height="27" fill="none"><path fill="#FF5F00" d="M28.143 24.125H16.365V2.96h11.778z"/><path fill="#EB001B" d="M17.12 13.54c0-4.294 2.01-8.118 5.141-10.583A13.4 13.4 0 0 0 13.942.079C6.508.079.482 6.105.482 13.54s6.026 13.462 13.46 13.462c3.14 0 6.03-1.076 8.319-2.878A13.44 13.44 0 0 1 17.12 13.54"/><path fill="#F79E1B" d="M44.028 13.54c0 7.435-6.026 13.462-13.46 13.462a13.4 13.4 0 0 1-8.32-2.878A13.44 13.44 0 0 0 27.39 13.54c0-4.294-2.01-8.118-5.142-10.583a13.4 13.4 0 0 1 8.32-2.878c7.433 0 13.46 6.026 13.46 13.461"/><path fill="#fff" d="M10.611 13.626c0-.588.385-1.071 1.015-1.071.601 0 1.008.462 1.008 1.07 0 .61-.407 1.072-1.008 1.072-.63 0-1.015-.483-1.015-1.071m2.708 0v-1.673h-.727v.406c-.23-.301-.58-.49-1.057-.49-.938 0-1.673.735-1.673 1.757s.735 1.756 1.673 1.756c.476 0 .826-.189 1.057-.49v.406h.727zm24.58 0c0-.588.386-1.071 1.016-1.071.602 0 1.008.462 1.008 1.07 0 .61-.406 1.072-1.008 1.072-.63 0-1.015-.483-1.015-1.071m2.71 0V10.61h-.728v1.749c-.23-.301-.58-.49-1.057-.49-.938 0-1.673.735-1.673 1.757s.735 1.756 1.673 1.756c.476 0 .826-.189 1.057-.49v.406h.728zM22.35 12.52c.468 0 .77.294.846.812H21.46c.078-.484.371-.812.89-.812m.014-.651c-.98 0-1.666.713-1.666 1.757 0 1.063.713 1.756 1.715 1.756.504 0 .965-.125 1.371-.468l-.356-.54a1.6 1.6 0 0 1-.974.35c-.468 0-.895-.216-1-.819h2.484q.012-.134.014-.28c-.007-1.043-.65-1.756-1.588-1.756m8.783 1.757c0-.588.385-1.071 1.015-1.071.602 0 1.008.462 1.008 1.07 0 .61-.406 1.072-1.008 1.072-.63 0-1.015-.483-1.015-1.071m2.708 0v-1.673h-.727v.406c-.232-.301-.58-.49-1.057-.49-.938 0-1.673.735-1.673 1.757s.735 1.756 1.673 1.756c.476 0 .825-.189 1.057-.49v.406h.727zm-6.816 0c0 1.015.707 1.756 1.785 1.756.504 0 .84-.112 1.203-.399l-.35-.588a1.47 1.47 0 0 1-.875.302c-.58-.008-1.008-.427-1.008-1.071s.427-1.064 1.008-1.071c.316 0 .603.104.876.3l.35-.587c-.365-.287-.7-.4-1.204-.4-1.078 0-1.785.743-1.785 1.758m9.378-1.757c-.42 0-.693.196-.882.49v-.406h-.72v3.345h.727v-1.875c0-.554.238-.861.714-.861.148 0 .301.02.455.084l.225-.686a1.6 1.6 0 0 0-.519-.091m-19.499.35c-.35-.23-.832-.35-1.364-.35-.848 0-1.393.406-1.393 1.07 0 .546.406.883 1.154.988l.344.049c.399.056.587.16.587.35 0 .258-.266.406-.763.406-.503 0-.867-.161-1.112-.35l-.343.566c.399.294.903.434 1.448.434.966 0 1.526-.455 1.526-1.092 0-.588-.44-.895-1.169-1l-.342-.05c-.315-.041-.568-.104-.568-.328 0-.245.238-.392.637-.392.427 0 .84.161 1.043.287zm9.386-.35c-.42 0-.693.196-.882.49v-.406h-.72v3.345h.727v-1.875c0-.554.238-.861.714-.861.147 0 .3.02.455.084l.224-.686a1.6 1.6 0 0 0-.518-.091m-6.208.084h-1.19v-1.015h-.735v1.015h-.679v.665h.679v1.526c0 .776.301 1.238 1.162 1.238.315 0 .679-.097.91-.258l-.21-.624c-.217.126-.455.19-.644.19-.364 0-.483-.225-.483-.56v-1.512h1.19zM9.219 15.298v-2.1c0-.79-.504-1.322-1.317-1.33-.426-.006-.867.127-1.176.596-.23-.37-.594-.595-1.105-.595-.357 0-.707.105-.98.496v-.412h-.728v3.345h.735v-1.854c0-.581.322-.89.82-.89.482 0 .727.315.727.883v1.861h.735v-1.854c0-.581.336-.89.819-.89.496 0 .734.315.734.883v1.861z"/></svg>