<svg xmlns="http://www.w3.org/2000/svg" width="37" height="33" fill="none"><path fill="#253B80" d="M4.944 23.134h-2.79a.39.39 0 0 0-.383.327L.643 30.616a.232.232 0 0 0 .23.268h1.332c.19 0 .353-.138.383-.327l.304-1.93a.39.39 0 0 1 .383-.328h.883c1.838 0 2.899-.889 3.176-2.651.125-.771.005-1.377-.356-1.802-.396-.465-1.1-.712-2.034-.712m.322 2.613c-.152 1.001-.917 1.001-1.657 1.001h-.421l.295-1.87a.23.23 0 0 1 .23-.196h.193c.504 0 .98 0 1.225.288.146.17.191.425.135.777m8.019-.032H11.95a.23.23 0 0 0-.23.196l-.059.374-.093-.136c-.29-.42-.934-.56-1.578-.56-1.477 0-2.738 1.118-2.983 2.687-.128.783.054 1.53.498 2.053.407.48.99.68 1.682.68 1.19 0 1.85-.766 1.85-.766l-.06.372a.232.232 0 0 0 .23.269h1.203a.39.39 0 0 0 .383-.328l.722-4.573a.232.232 0 0 0-.229-.268m-1.862 2.6c-.129.763-.735 1.276-1.508 1.276-.387 0-.698-.125-.897-.36-.197-.235-.272-.568-.21-.939a1.496 1.496 0 0 1 1.498-1.286c.38 0 .688.126.89.364.204.24.285.576.227.945m8.976-2.6h-1.343a.39.39 0 0 0-.32.17l-1.853 2.727-.785-2.62a.39.39 0 0 0-.372-.277h-1.319a.233.233 0 0 0-.22.307l1.478 4.34-1.39 1.963c-.11.155 0 .367.19.367h1.34a.39.39 0 0 0 .32-.166l4.465-6.446a.232.232 0 0 0-.191-.365"/><path fill="#179BD7" d="M24.847 23.134h-2.79a.39.39 0 0 0-.384.327l-1.128 7.155a.232.232 0 0 0 .23.268h1.431a.27.27 0 0 0 .268-.23l.32-2.027a.39.39 0 0 1 .383-.328h.883c1.838 0 2.898-.89 3.176-2.652.125-.77.005-1.377-.356-1.8-.396-.467-1.1-.713-2.033-.713m.322 2.613c-.153 1.001-.918 1.001-1.658 1.001h-.42l.296-1.87a.23.23 0 0 1 .229-.196h.193c.503 0 .979 0 1.224.287.147.172.191.426.136.778m8.018-.032h-1.335a.23.23 0 0 0-.23.196l-.059.374-.094-.136c-.289-.42-.934-.56-1.577-.56-1.477 0-2.737 1.118-2.983 2.687-.127.783.053 1.53.497 2.053.408.48.99.68 1.683.68 1.19 0 1.85-.766 1.85-.766l-.06.372a.233.233 0 0 0 .23.269h1.203c.19 0 .353-.139.383-.328l.722-4.573a.233.233 0 0 0-.23-.268m-1.862 2.6a1.49 1.49 0 0 1-1.508 1.276c-.387 0-.698-.125-.897-.36-.198-.235-.272-.568-.21-.939a1.496 1.496 0 0 1 1.497-1.286c.38 0 .688.126.892.364.204.24.285.576.226.945m3.435-4.985-1.145 7.286a.232.232 0 0 0 .23.268h1.15a.39.39 0 0 0 .384-.328l1.13-7.154a.233.233 0 0 0-.23-.269h-1.29a.23.23 0 0 0-.229.197"/><path fill="#253B80" d="m15.975 17.909.314-1.997-.7-.016h-3.344L14.57 1.16a.2.2 0 0 1 .065-.115.2.2 0 0 1 .124-.046h5.638c1.872 0 3.163.39 3.838 1.158.316.361.517.738.615 1.153.102.435.104.955.004 1.589l-.007.046v.407l.316.179q.398.21.64.488c.27.308.445.7.52 1.165.076.477.05 1.046-.075 1.69-.144.74-.377 1.385-.692 1.913-.29.486-.659.89-1.097 1.202a4.5 4.5 0 0 1-1.477.667 7.4 7.4 0 0 1-1.847.213h-.439a1.33 1.33 0 0 0-.858.316c-.24.207-.398.49-.447.798l-.033.18-.555 3.52-.025.128c-.007.041-.018.062-.035.076a.1.1 0 0 1-.058.02z"/><path fill="#179BD7" d="M25.461 4.993a10 10 0 0 1-.057.33c-.744 3.818-3.288 5.137-6.537 5.137h-1.654a.8.8 0 0 0-.794.68l-.847 5.372-.24 1.522c-.04.258.158.49.418.49h2.934a.706.706 0 0 0 .697-.595l.03-.15.552-3.505.035-.192a.706.706 0 0 1 .697-.597h.44c2.842 0 5.067-1.154 5.717-4.493.272-1.396.131-2.56-.588-3.38a2.8 2.8 0 0 0-.803-.619"/><path fill="#222D65" d="M24.683 4.683a6 6 0 0 0-.723-.16 9 9 0 0 0-1.458-.107h-4.42a.7.7 0 0 0-.696.596l-.94 5.955-.027.173a.8.8 0 0 1 .794-.68h1.654c3.25 0 5.793-1.32 6.536-5.136q.034-.17.058-.33a4 4 0 0 0-.778-.311"/><path fill="#253B80" d="M17.387 5.012a.7.7 0 0 1 .697-.595h4.42q.786-.001 1.457.106.192.03.373.07a6 6 0 0 1 .518.142q.329.11.61.258c.222-1.41 0-2.371-.764-3.241-.84-.958-2.358-1.367-4.3-1.367h-5.639a.806.806 0 0 0-.796.68l-2.349 14.887a.485.485 0 0 0 .478.56h3.481l.874-5.545z"/></svg>