<svg xmlns="http://www.w3.org/2000/svg" width="69" height="54" fill="none"><g clip-path="url(#a)" filter="url(#b)"><path fill="#78AF02" d="M22.043 64.194c-1.878-.022-3.704.005-5.582-.103-1.458-.08-2.748.627-4.184.463-1.854-.212-1.694-1.224-2.031-3.06-.41-2.204-.705-4.413-1.112-6.603-.547-2.948-.425-6.136.372-9.033 1.567-5.703 4.829-10.671 9.05-14.795 7.887-7.698 19.77-12.35 30.73-12.9 2.432-.126 5.938-.441 7.968-1.961 1.434-1.071 3.025-3.62 2.967-.4-.039 1.902-1.037 3.291-1.661 4.966-.628 1.697-.623 3.52-.721 5.332-.079 1.715-.332 3.418-.521 5.117-1.18 11.056-10.2 19.657-18.677 25.829-4.975 3.632-10.227 7.205-16.598 7.148"/><path fill="#A3CE24" d="M9.497 57.074a77 77 0 0 0-.368-2.175c-.547-2.948-.426-6.136.371-9.033 1.567-5.703 4.83-10.67 9.05-14.795 7.893-7.706 19.775-12.359 30.735-12.908 2.433-.126 5.939-.441 7.97-1.961 1.433-1.071 3.024-3.62 2.966-.4-.026 1.448-.619 2.607-1.168 3.81-2.046 2.082-4.76 3.098-7.089 5.008-.953.785-1.796 1.623-2.828 2.328-.257.175-3.363 1.575-3.312 1.416.7-2.062 2.088-3.433 3.686-4.841 1.374-1.211 4.05-2.888 4.436-4.78-3.889-1.821-7.235 4.051-9.517 6.018.764-1.944 2.657-3.181 3.557-5.041-1.127.65-2.876.096-4.188.679-1.337.601-2.113 1.62-2.603 3-.788 2.17-1.44 4.216-1.757 6.375-.337 2.292.435 4.763-1.117 6.752-1.638-1.515-.272-5.747.164-7.518.245-1.012 2.654-8.665 2.996-8.596-6.492-1.278-9.15 8.106-9.144 12.628.007 1.507.157 3.017.214 4.522.029.777-.454 3.418-.096 3.987-2.719-4.275-1.895-10.328-.251-14.818.377-1.042.875-2.085.92-3.14-4.78-2.032-5.97 4.876-6.224 7.886-.205 2.47-.915 5-.765 7.486.105 1.784 1.115 3.444 1.352 5.197-1.613-1.985-2.164-5.119-2.28-7.618-.133-3 1.37-6.122.863-9.09-2.075-.734-5.036 3.735-5.748 5.239-1.383 2.914-1.183 6.95-1.196 10.104-.002 1.78.81 3.497 1.395 5.153.346.988.537 3.955 1.107 4.623-1.296-1.53-1.961-3.927-2.402-5.86-.281-1.235-.544-2.481-.686-3.741-.118-1.121.308-2.74.026-3.767-.783-2.82-2.807-1.064-3.253.809-.965 4.147-.968 8.053-.165 12.17-.396-2.049-1.325-3.702-1.422-6.004-.088-2.296.723-4.463.245-6.813-2.6.156-3.265 9.032-3.42 10.84-.177 2.098.144 4.131.795 6.113.347 1.038 1.534 2.846 1.833 4.18.08.373.095.7-.003.962-.098.261-3.022-3.18-3.25-3.621a28 28 0 0 0-.43-.765" opacity="0.42"/><path fill="#A3CE24" d="M9.5 45.866c1.567-5.703 4.83-10.67 9.05-14.795 7.893-7.706 19.775-12.359 30.735-12.908 2.433-.126 5.939-.441 7.97-1.961 1.433-1.071 3.024-3.62 2.966-.4-.032 1.822-.95 3.168-1.57 4.749-1.045 1.368-2.217 2.5-3.929 3.096-.128.044-.27.09-.408.13-2.944.854-2.254-1.349-2.98-3.152-1.14-2.851-3.841.41-4.79 2.04-.78 1.358-.885 4.07-2.32 4.846-1.604-2.138.345-4.936 1.02-7.137-4.396-.748-5.471 6.326-5.296 9.526.196 3.85-1.931 1.1-2.624-.96-.45-1.329-.556-2.466-.479-3.865.054-1 .457-2.464.147-3.328-1.945 2.165-3.256 4.47-4.024 7.45-.41 1.543-.874 3.685-.92 5.338-.038 1.463.658 3.136-.113 4.463-1.769-.299-2.288-4.802-2.358-6.219-.175-3.408.468-5.912 1.422-9.102-1.343.035-2.86 1.867-3.57 2.932-1.02 1.544-1.01 3.516-1.285 5.302-.33 2.09-.675 4.29-.463 6.392.131 1.277 1.611 4.305 1.014 5.315-1.705-.67-2.922-3.794-3.54-5.387-1.101-2.836-.929-6.306.183-9.129-1.141.043-2.64 2.704-3.162 3.658-2.667 4.92-1.461 10.552.237 15.674.414 1.256 1.373 2.71-.724 2.009-1.145-.388-1.856-1.447-2.324-2.557-1.448-3.335-.435-7.132-.785-10.588-.744 1.689-1.644 3.757-1.79 5.62-1.108 3.132.822 6.877-.219 9.86-1.516-1.844-1.883-4.055-1.72-6.395.102-1.54 1.228-3.548.833-5.058-.394-1.546-1.271-1.27-2.072-.023-1.36 2.099-.698 5.213-1.133 7.558-.194 1.06.107 1.504-1.224 1.084a1.5 1.5 0 0 1-.386-.198c.078-1.313.286-2.62.631-3.88" opacity="0.42"/><path fill="#A3CE24" d="M14.873 42.696c-.03.077-.045.151-.075.228.002.05-.016.11-.015.16q.082-.194.09-.389" opacity="0.42"/><path fill="#6D9E02" d="M9.129 54.899c-.547-2.948-.426-6.136.371-9.033.134-.505.312-1.002.47-1.49-.13.605-.25 1.193-.309 1.713-.32 2.706-.266 6.774 1.395 9.074a4 4 0 0 0 1.437 1.226c1.952.978 2.565-1.743 2.665-3.09.146-2.193-.64-4.453-.947-6.61-.366-2.614.081-7.05 1.811-9.867-1.584 4.42-2.439 15.154 3.106 16.476.262.062.586-.017.679-.306.807-2.841-.403-5.436-.753-8.282-.342-2.718.396-10.444.948-11.633-.461 4.195.018 9.33 1.928 12.72 1.154 2.03 3.638.56 4.238-1.132.84-2.33-.426-4.915-.311-7.362.12-2.785.373-5.515.927-8.24.14-.72.427-1.41.682-2.123.478-1.326 1.136-2.648 2.47-3.263-1.778 1.928-2.041 4.638-2.262 7.096-.232 2.683-.472 5.36 1.023 7.775.513.836 2.024 3.385 3.354 2.498 1.163-.772.687-4.257.6-5.44-.21-2.591.164-4.868.581-7.397.372-2.255 1.116-3.944 2.736-5.629-1.636 2.944-2.024 6.287-1.73 9.595.141 1.576 1.139 5.084 3.473 3.618 1.948-1.212 1.32-4.497 1.305-6.375-.043-2.815 1.557-5.846 2.866-8.237-.233 1.57-.972 3.043-.99 4.654-.003.84-.035 2.577.407 3.253.988 1.499 1.484-.254 1.81-1.137.916-2.509 2.14-4.447 3.827-6.489 1.373-1.663 3.009-2.568 5.041-3.22-2.227.809-3.246 2.646-4.463 4.505-.892 1.377-2.25 3.124-1.265 4.853.219.385.65.467.746.852.178.687-.423 1.266-.78 1.774-.332.475-.466.98-.76 1.47-.753 1.23-2.294 1.164-3.438 1.803-1.24.706-2.2 1.866-3.21 2.855-1.269 1.235-2.554 2.46-3.825 3.68-2.5 2.4-5.03 4.791-7.528 7.205-3.355 3.218-6.757 6.365-10.281 9.39-2.489 2.139-3.873 3.66-4.782 6.735-.087.281-.194.695-.34 1.166-1.57-.27-1.466-1.272-1.787-3.01-.433-2.222-.729-4.431-1.135-6.621"/><path fill="#61A304" d="M15.103 56.045c1.448-2.014 3.166-3.838 4.764-5.734 3.523-4.174 7.102-8.723 11.372-12.167 4.388-3.543 8.649-7.078 13.296-10.293 4.353-3.006 9.356-6.154 12.896-10.072.752-.829 1.432-2.061 1.894-3.069.053-.11.094-.239.134-.382.483-.236.79.04.764 1.488-.039 1.902-1.036 3.29-1.66 4.966-.629 1.697-.624 3.52-.721 5.332-.08 1.715-.333 3.418-.522 5.117-1.18 11.056-10.2 19.657-18.676 25.829-4.984 3.626-10.236 7.199-16.601 7.134-1.878-.022-3.704.005-5.583-.103-1.457-.08-2.747.627-4.183.463-.769-.087-1.183-.316-1.435-.688a34.6 34.6 0 0 1 4.26-7.821"/><path fill="#468E02" d="M57.429 17.765c.751-.829 1.432-2.061 1.894-3.069q.076-.166.133-.382c.483-.236.79.04.765 1.488.002.136-.018.269-.032.393a.55.55 0 0 0-.3-.076c-.57.028-1.129 1.053-1.422 1.47-.496.69-1.097 1.148-1.736 1.677-2.247 1.881-4.67 3.492-6.923 5.382-1.177.982-5.752 3.259-5.904 4.886-.128 1.473 1.575.75 2.693.41 1.288-.392 1.987-1.11 3.133-1.7 1.232-.626 2.59-.994 3.734-1.791 1.368-.959 2.38-2.02 3.58-3.12-.706 1.947-3.56 3.44-5.244 4.518-2.374 1.523-4.772 2.663-7.467 3.388-2.191.601-4.027 1.024-5.72 2.622-.284.265-1.029.683-.78 1.114.346.585 1.653.218 2.204.287 1.114.17 2.129.43 3.29.462 2.035.059 4.114-.206 6.146-.284 1.76-.073 3.773-.592 5.309-1.494-3.58 2.095-7.082 3.17-11.278 2.867-1.346-.1-2.75.038-4.086-.129-1.366-.176-2.764-.325-4.052.31-1.201.6-2.27 1.707-3.296 2.612-1.418 1.24-.813 1.823.803 2.236 2.76.713 5.573.377 8.316.87 2.506.45 5.367-.427 7.865-.715 2.036-.222 3.795-.833 5.407-1.669l-.096.19c-.038.07-.075.142-.127.215-3.182 2.728-7.668 2.979-11.796 3.554-.444.006-.896.007-1.348.007-2.737-.05-5.517-.142-8.26.024-1.91.114-3.925-.113-5.126 1.67-.443.667-.925 1.685-.319 2.354.284.309.898.53 1.28.665 3.58 1.251 7.623.885 11.348 1.041 2.336.099 4.705.099 7.057-.085a.3.3 0 0 1-.069.062q-.006.013-.025.019c-2.334 1.466-5.177 1.427-7.84 1.551-1.375.062-2.866.238-4.245.115-1.268-.108-2.526-.16-3.792-.252-1.869-.138-3.609-.356-5.48-.3-2.451.065-6.372.797-6.797 3.809-.279 1.966 3.227 2.957 4.583 3.444 3.09 1.115 6.95.903 10.206.754a57 57 0 0 0 2.192-.149c-.321.215-.648.437-.964.644-.772.509-2.283.487-3.195.69-1.272.282-2.682-.145-3.999-.2-2.583-.114-5.839-.259-8.243-1.272-1.047-.44-4.686-1.624-4.155.824.549 2.51 4.086 3.927 6.56 4.44-1.798-.015-3.568.002-5.38-.096-1.457-.08-2.747.627-4.183.463-.77-.087-1.183-.316-1.435-.688a35 35 0 0 1 3.628-6.884 149 149 0 0 1 4.966-6.18l.428-.505c.197-.229.385-.463.582-.691.65-.754 1.297-1.52 1.956-2.269 2.383-2.738 4.795-5.639 7.523-8.086a31 31 0 0 1 1.311-1.12c4.388-3.544 8.649-7.079 13.296-10.294 2.51-1.734 5.296-3.48 7.807-5.494 1.877-1.371 3.629-2.878 5.118-4.533" opacity="0.6"/><path fill="#A3CE24" d="M17.715 60.245c.999-.936 5.33.377 6.512.57 4.618.783 8.473.578 12.032-2.862 1.079-1.051 1.766-1.962.084-2.664-2.107-.879-6.978-.324-9.223-.151-1.084.083-7.187.898-5.893-1.663.692-1.371 4.383-1.166 5.634-1.278 2.9-.252 5.69-.348 8.613.064 1.789.253 4.851 1.337 6.583.73 2.13-.74 4.992-5.659 1.092-5.705-2.792-.04-5.533.054-8.328-.122-.95-.056-6.815-.05-5.669-1.495.786-1 4.312-.75 5.494-.887 3.021-.337 6.319-.652 9.35-.517 1.896.083 5 .463 5.932-1.79.706-1.703-.915-2.058-2.18-2.309-3.175-.626-7.869.774-10.708-1.082-2.273-1.495.776-1.752 2.235-1.95 2.081-.288 4.184-.256 6.285-.31 1.713-.056 6.471.055 6.228-2.717-1.61-.334-6.562 1.226-7.328-1.045-.451-1.342 2.722-1.426 3.48-1.689 2.304-.778 7.118-2.96 7.572-5.646-2.51-1.49-5.213 3.551-7.824 2.295.856-1.989 2.74-3.196 4.371-4.495 1.493-1.189 2.986-2.866 4.221-4.577.398-.393.781-.783 1.154-1.193.752-.829 1.433-2.062 1.895-3.069.052-.11.094-.24.133-.382.483-.236.79.04.764 1.488-.038 1.902-1.036 3.29-1.66 4.966-.628 1.697-.623 3.52-.721 5.332-.08 1.715-.332 3.418-.522 5.117-1.178 11.056-10.198 19.657-18.676 25.829-4.188 3.048-8.564 6.05-13.635 6.892-.652-.15-1.182-.596-1.441-1.62-1.126.578-7.444-.565-5.856-2.065" opacity="0.31"/><path fill="#4A8209" d="M52.63 22.12c.158-.122.317-.243.466-.37-1.542 2.045-4.55 3.93-6.487 5.406-1.601 1.222-4.573 2.29-5.767 3.908 1.75.36 4.6-.745 6.243-1.486-1.745 1.427-3.836 2.024-5.988 2.568-2.012.519-4.267 1.088-5.165 3.17 1.458 1.388 4.286.61 6.082 1.063-2.75.735-6.738.065-7.816.383-1.536.45-5.028 4.683-5.463 6.331.937.266 2.148-.277 3.15-.331 1.031-.06 2.082.115 3.098-.028-2.215.878-4.194.896-6.462 1.345-2.395.471-4.164 2.455-5.588 4.278 2.708 2.252 7.048.922 9.97 2.518-1.659.852-4.386.004-6.17-.1-1.906-.102-3.793-.215-5.626.588-1.413.622-3.229 1.89-3.17 3.616.053 1.807 2.772 3.469 4.256 4.07-2.132-.078-4.702-2.613-6.847-1.54-1.71.854-1.93 2.544-1.031 4.138.812 1.437 2.322 1.897 3.757 2.463-.54-.013-1.087-.017-1.639-.05-1.457-.08-2.747.627-4.183.463-.769-.087-1.183-.316-1.435-.688a35.4 35.4 0 0 1 2.257-4.683c3.17-3.81 6.07-7.895 9.2-11.784 2.759-3.293 5.643-6.607 8.946-9.263 4.388-3.543 8.648-7.078 13.295-10.293 2.49-1.723 5.186-3.497 7.712-5.427a1.6 1.6 0 0 0 .405-.266"/><path fill="#CCEA86" d="M24.517 27.925c-1.976 1.095-3.84 2.413-5.524 4.152-4.869 5.014-10.208 16.011-5.864 22.829 2.325-.947 3.981-7.04 5.291-9.187 3.357-5.487 8.343-9.918 13.417-13.811 4.807-3.689 13.386-5.492 15.612-11.735-2.974-2.17-7.28.735-9.89 2.02-4.38 2.12-8.942 3.453-13.042 5.732" opacity="0.24"/><path fill="#CCEA86" d="M48.698 43.811c-.002-.136.014-.246.03-.357-.01-.02-.012-.034-.023-.053a.9.9 0 0 0-.007.41" opacity="0.2"/><path fill="#CCEA86" d="M45.14 49.62c.469-.965.399-2.015 1.454-2.667.667-.412 1.53-.198 2.085-.884.572-.71.464-1.934.05-2.615.2-.947 1.285-.858 1.873-1.557.47-.55.493-1.523.918-2.129.943-1.329 3.054-1.535 3.858-2.84.852-1.405-.379-2.89-.24-4.186.126-1.156 1.257-1.707 1.477-2.823.27-1.361-.93-2.069-.735-3.202.3-1.768 1.062-3.188 1.096-5.032.02-1.109-.166-2.045-.471-2.968.318-.314.636-.629.93-.96.751-.829 1.432-2.062 1.893-3.069.053-.11.095-.24.134-.383.483-.235.79.041.764 1.489-.038 1.902-1.036 3.29-1.66 4.966-.628 1.697-.623 3.52-.721 5.332-.08 1.715-.332 3.418-.522 5.117-1.178 11.056-10.198 19.657-18.676 25.829-.26.196-.522.379-.79.57 1.915-1.565 3.567-3.435 5.178-5.298.755-.85 1.62-1.685 2.105-2.69" opacity="0.2"/><path fill="#CCEA86" d="M23.322 30.361c-.95.8-1.621 1.721-2.506 2.566-.923.88-2.336 1.05-3.087 2.087-.605.845-.648 2.11-.978 3.05-.478 1.327-1.227 2.535-1.716 3.878-.471 1.282-.93 2.547-1.267 3.863-.186.736-.948 2.12-.898 2.85.041.603.086.94.9 1.034 1.65.205 2.588-2.143 2.994-3.262.75-2.1.773-4.466 2.139-6.292 1.085-1.462 2.676-2.46 4.163-3.432 2.034-1.335 4.187-2.733 6.14-4.196 1.841-1.372 2.798-3.156 4.91-4.252.955-.491 1.534-1.038 2.33-1.566.894-.595 10.423-4.382 9.071-5.66-1.104-1.054-6.338 1.97-7.608 2.46-2.803 1.088-5.573 2.688-8.475 3.414-2.366.588-4.253 1.904-6.112 3.458" opacity="0.25"/></g><defs><clipPath id="a"><path fill="#fff" d="M0 56.39 39.521 0l29.186 20.455-39.521 56.39z"/></clipPath><filter id="b" width="76.7069" height="84.8445" x="-4" y="-4" color-interpolation-filters="sRGB" filterUnits="userSpaceOnUse"><feFlood flood-opacity="0" result="BackgroundImageFix"/><feBlend in="SourceGraphic" in2="BackgroundImageFix" result="shape"/><feGaussianBlur result="effect1_foregroundBlur_95_6303" stdDeviation="2"/></filter></defs></svg>