<svg xmlns="http://www.w3.org/2000/svg" width="67" height="50" fill="none"><g clip-path="url(#a)"><path fill="#FCE1A7" d="M11.803 33.211q.245-.552.705-1.2c2.535-3.669.602-6.224.517-10.46-.085-6.807 1.979-12.249 5.686-17.83 5.275-7.922 13.511-15.613 23.263-17.13 10.345-1.6 15.514 10.06 14.678 18.278-.899 9.443-5.972 18.098-13.385 23.912-3.744 2.91-7.998 5.131-12.576 6.406-4.343 1.238-8.985-.067-13.201 1.183-3.486 1.027-7.333.37-5.687-3.159"/><path fill="#F2CF91" d="M26.689.098c3.093-3.009 7.27-6.226 11.315-7.799 1.979-.775 3.616-1.83 5.796-2.124 2.329-.309 5.32-.03 7.16 1.606 2.463 2.214 4.427 6.41 3.473 9.707-.302-5.367-6.292-7.931-11.09-7.087-2.664.468-5.18 1.648-7.468 3.083-3.231 2.03-6.496 4.717-8.86 7.729-2.532 3.216-4.214 7.74-5.591 11.556-1.395 3.893-2.02 7.936-3.146 11.89-.34 1.201-.993 2.309-1.702 3.346-.743 1.079-1.997 3.288-3.223 3.7-.115-.14-.078-.269-.019-.425.412-1.008 1.324-1.903 1.878-2.862 1.587-2.758 1.595-5.37 1.702-8.468.034-1.134.08-2.28.215-3.399.479-3.89 1.982-7.58 3.458-11.18 1.334-3.26 3.44-6.71 6.102-9.273"/><path fill="#F2CF91" d="M53.453-8.03c-1.028-.838-2.236-1.71-4.303-2.393-3.273-1.054-4.923-.738-8.347.157C33.121-8.29 26.366-2.669 22.01 3.68c-2.589 3.762-4.036 8.25-5.046 12.707-1.605 7.09-.194 10.063-1.747 14.373-.528 1.46-3.234 4.806-1.596 5.96-1.761-.276-2.815-1.363-1.807-3.523q.244-.551.705-1.2c2.536-3.668.602-6.224.518-10.459-.086-6.808 1.978-12.25 5.685-17.83 5.275-7.922 13.512-15.614 23.263-17.13 5.131-.777 8.978 1.7 11.468 5.392"/><path fill="#FFF5CA" d="M19.769 28.622c.835-1.527 1.48-3.186 2.108-5.019 2.72-7.842 6.39-15.503 12.07-21.545 3.386-3.59 15.42-10.871 18.181-2.95 1.481 4.258-.093 9.826-1.778 13.824-2.78 6.655-8.383 13.468-14.903 16.732-1.85.926-3.878 1.48-5.895 2.021-3.714 1-7.402-.3-10.895 1.744-.913.53-4.623 1.693-2.418-.31 1.54-1.385 2.642-2.876 3.53-4.497" opacity="0.34"/><path fill="#ECBB70" d="M52.58-9.197c-1.797-1.465-3.612-2.627-6.223-2.868-6.696-.635-13.76 3.437-18.653 7.756-6.043 5.337-9.148 10.908-11.219 17.505-1.085 3.486-1.339 8.219-1.05 11.755.387 4.732-2.054 5.905-2.972 10.278-.081.435-.026.844.136 1.204-1.094-.506-1.563-1.526-.782-3.21a7 7 0 0 1 .705-1.201c2.535-3.669.602-6.224.518-10.459-.086-6.808 1.978-12.25 5.685-17.83C24-4.19 32.236-11.881 41.988-13.397c4.56-.72 8.107 1.172 10.591 4.2" opacity="0.72"/><path fill="#ECBB70" d="M16.806 21.312c.083-.775.192-1.551.339-2.32.184-.896.458-1.765.747-2.622 1.312-3.96 2.691-8.618 5.128-12.025 2.601-3.638 5.771-6.88 9.47-9.372 1.62-1.091 7.721-5.38 14.355-4.977 1.782.11 3.987 1.157 5.671 3.123 1.7 2.001 2.428 4.916 2.547 7.54.367 8.199-2.13 16.634-7.737 22.782-3.272 3.591-7.516 6.64-11.953 8.553-3.523 1.52-6.903 2.474-10.713 2.052-1.779-.199-3.546.568-5.248 1.228-1.487.563-3.09 1.213-4.664.68 2.11.128 4.04-1.12 6.031-1.91 4.68-1.874 7.209.736 14.748-2.995 4.744-2.345 8.64-6.087 11.873-10.302 1.484-1.931 2.935-3.935 3.938-6.144C53.41 9.964 53.932 4.79 53.227-.224c-.178-1.237-.441-2.454-1.017-3.538-.99-1.81-2.86-3.016-4.848-3.545-1.614-.428-3.391-.489-5.049-.248C28-5.595 18.592 9.634 17.914 23.172c-.121 2.36-.028 4.848-1.05 6.997-.92 1.912-2.652 3.39-3.413 5.388.363-1.593 1.361-2.51 2.049-3.884.48-.951.63-2.285.786-3.342.338-2.319.294-4.7.52-7.02"/><path fill="#C59C5F" d="M54 3.503c.106 2.977-.46 6.498-1.48 9.287-1.86 5.107-4.793 9.544-8.789 13.182-3.088 2.808-8.809 6.519-13.675 7.307-2.755.44-5.146.151-7.917.554-.73.111-1.876.565-2.611.739.407-.192.803-.37 1.213-.536 4.679-1.874 7.208.735 14.748-2.995 4.743-2.346 8.64-6.088 11.873-10.303 1.483-1.931 2.935-3.934 3.938-6.144 2.11-4.63 2.632-9.804 1.927-14.818a14 14 0 0 0-.372-1.783C53-1.82 53.89.978 54 3.503M50.538-8.654c-2.942-1.011-6.187-1.063-9.533-.264-2.843.687-10.458 4.901-17.053 12.68-3.483 4.102-6.344 14.607-6.589 16.502-.61 2.12.686 8.48-2.304 12.621-.496.665-.968 1.327-1.333 2.054l-.167.205c.428-1.335 1.29-2.225 1.93-3.457.48-.952.63-2.285.785-3.342.35-2.333.306-4.714.532-7.033.083-.775.192-1.551.339-2.32.184-.896.458-1.765.747-2.622 1.312-3.96 2.691-8.618 5.128-12.025 2.601-3.638 5.771-6.88 9.47-9.372 1.62-1.091 7.721-5.38 14.355-4.977 1.15.073 2.466.531 3.693 1.35"/><path fill="#FFF5CA" d="M45.695 20.654c-3.14 4.13-7.195 7.562-11.573 9.067-2.258.754-5.954 2.178-8.338 1.463-2.687-.849-2.314-3.936-.53-5.509 2.454-2.14 5.837-3.434 8.404-5.46 2.688-2.065 5.12-4.43 7.142-7.105a25 25 0 0 0 1.622-2.297A55 55 0 0 0 45.938 4.6c.673-1.274 1.526-3.72 3.235-3.828 4.086-.195 2.47 5.93 1.934 8.293-.782 3.87-2.73 7.994-5.412 11.589" opacity="0.51"/><path fill="#FFFAE6" d="M40.196 19.196c2.586-3.059 4.815-6.408 6.912-9.819.557-.934 1.786-4.12 3.343-3.51 1.4.55.443 3.32.117 4.306-2.21 6.825-7.415 12.254-12.9 16.909-.89.754-7.841 4.099-6.87.474.3-1.097 3.895-2.9 4.817-3.696 1.66-1.447 3.168-3.016 4.58-4.664" opacity="0.66"/><path fill="#FFFAE6" d="M26.172-.78c.091-.084.194-.182.316-.219s.29.009.327.13-.026.229-.09.336c-.923 1.41-2.105 2.608-3.096 3.963-1.2 1.639-2.079 3.472-2.908 5.3-.418.933-.826 1.853-1.258 2.775-.186.395-.848 2.382-1.438 2.014-.456-.28.11-1.367.224-1.73a35 35 0 0 1 1.007-2.661 32.6 32.6 0 0 1 2.77-5.048 35 35 0 0 1 4.146-4.86m7.839-5.692c-.166.092-.319.195-.485.287-1.038.656-2.001 1.418-2.979 2.168-.175.13-1.477.776-1.12-.026.04-.104.134-.164.214-.234.825-.648 1.623-1.318 2.477-1.918a27 27 0 0 1 3.602-2.093c2.488-1.203 5.153-2.035 7.875-2.546.357-.073.766-.127 1.043.122-.018.19-.194.32-.36.412-.69.37-1.535.455-2.282.643-.868.225-1.744.376-2.594.661-.946.321-1.885.716-2.766 1.181-.884.44-1.77.855-2.625 1.343M31.03 33.96c1.35-.31 2.604-.926 3.878-1.48 4.905-2.123 8.774-4.795 12.32-8.891.237-.263.58-.46.872-.678.08-.07.211-.146.304-.093.135.087.045.31-.07.421-1.988 2.27-4.044 4.372-6.512 6.138-2.315 1.663-4.97 3.322-7.66 4.27-1.864.801-3.96 1.3-5.977 1.59-1.967.285-4.106-.003-6.09-.006-.202-.005-.39.002-.574-.08.01-.152.151-.241.295-.306 1.352-.65 3.175-.506 4.646-.49 1.512.05 3.083-.058 4.568-.395" opacity="0.51"/></g><defs><clipPath id="a"><path fill="#fff" d="m66.453 1.754-38.556 47.27L0 26.27 38.555-21z"/></clipPath></defs></svg>