<svg xmlns="http://www.w3.org/2000/svg" width="31" height="24" fill="none"><g clip-path="url(#a)"><path fill="#D5D458" d="M7.42 3.82C10.34 1.42 14.27.71 18.01.19c1.28-.18 2.6-.34 3.85 0 1.99.53 3.68 2.29 5.74 2.13.57-.04 1.17-.24 1.7-.03.69.27.98 1.14.84 1.87s-.6 1.35-1.05 1.94c-5.35 6.98-11.27 14.36-19.72 16.79-2.19.63-4.78.88-6.9-.13-2.72-1.29-2.74-3.38-2.16-6.03C1.35 11.87 3.5 7.05 7.42 3.82"/><path fill="#BFB939" d="M2.82 22.91c2.77-.38 5.3-1.69 7.67-3.1 1.95-1.16 4.04-2.36 5.82-3.76 1.2-.94 1.9-2.36 2.57-3.73.46-.94.92-1.88 1.38-2.83.26-.53.52-1.07.59-1.66-1.2.44-2.4.88-3.59 1.32.96-.35 2.1-1.8 2.88-2.48.4-.34 1.84-1.19 1.34-1.93-.2-.3-.59-.4-.95-.45a7 7 0 0 0-3.39.34c.75-.87 1.93-1.23 3.06-1.43.3-.05.63-.11.84-.34-.33-.3-.82-.35-1.27-.37-2.43-.11-4.88.15-7.23.76.8-.4 1.6-.79 2.45-1.06.55-.17 1.12-.29 1.68-.41 1.21-.25 2.42-.5 3.64-.75-.95-.56-2.55-.54-3.6-.35-.81.15-1.71-.02-2.5.15C15.46.56 16.74.36 18 .19c1.28-.18 2.6-.34 3.85 0 1.99.53 3.68 2.29 5.74 2.13.57-.04 1.17-.24 1.7-.03.69.27.98 1.14.84 1.87-.13.73-.59 1.35-1.04 1.94-5.35 6.98-11.27 14.36-19.72 16.79-2.07.59-4.5.84-6.55.02" opacity="0.62"/><path fill="#FFEC9C" d="M26.05 6.36c-.92-1.54-.4-2.83-.06-4.28.52.18 1.05.28 1.61.24.57-.04 1.17-.24 1.7-.03.69.27.98 1.14.84 1.87s-.6 1.35-1.05 1.94c-.5.66-1.02 1.32-1.53 1.98-.55-.53-1.11-1.04-1.51-1.72" opacity="0.62"/><path fill="#E8B769" d="M25.98 6.61c.02-.11.03-.22.03-.34 1.05.45 2.18-.38 2.43-1.44.17-.71.41-1.44.03-2.07.02-.14-.3-.37-.33-.51.4-.06.8-.1 1.17.04.69.27.98 1.14.84 1.87-.15.73-.61 1.35-1.06 1.94-.57.74-1.14 1.49-1.73 2.23-.81-.42-1.52-1.01-1.38-1.72" opacity="0.68"/><path fill="#E5DF6E" d="M8.76 5.76c1.71-1.18 3.61-2.11 5.63-2.58 2.56-.6 5.33-.44 7.7.7 1.3.62 2.54 1.68 2.74 3.1.35 2.56-1.22 4.26-2.66 6.07-1.74 2.2-4 3.96-6.46 5.31-3.13 1.71-6.58 2.77-10.06 3.57-1.31.3-2.93.47-3.77-.59-.58-.73-.53-1.77-.39-2.69.74-4.97 3.09-10 7.27-12.89" opacity="0.44"/><path fill="#A57329" d="M27.37 8.07c.03-.04.05-.07.08-.1.61-.86 1.51-2.44 1.72-3.48.23-1.13.06-1.96-.83-2.26.33-.04.66-.06.96.06.69.27.98 1.14.84 1.87s-.6 1.35-1.05 1.94c-.54.7-1.09 1.41-1.64 2.11-.03-.05-.05-.1-.08-.14" opacity="0.65"/><path fill="#E5DF6E" d="M5.87 19.87c-.16.07-.32.14-.48.22-.77.36-1.95.96-2.81.64-1.01-.38-.62-2.64-.44-3.55.53-2.77 2.31-4.88 4.1-6.65.93-.93 2.09-1.63 3.37-1.71.53-.03 1.07.04 1.6-.02 1.11-.12 2.09-.9 3.21-.93.68-.02 1.64.08 2.3.27.55.16 1.09.59 1.26 1.2.18.63-.06 1.28-.32 1.83-1.74 3.68-4.83 6.42-8.42 7.47-1.2.35-2.26.73-3.37 1.23"/><path fill="#B9BC37" d="M2.46 22.76c-.76-.36-1.31-.79-1.69-1.27.47.59 2.51.21 3.13.15 1.44-.15 2.85-.48 4.22-.93 4.95-1.62 10.89-4.33 13.06-9.41l-1.29.69c.89-1.52 1.93-2.96 3.12-4.26.17-.18.32-.51.11-.64-.06-.04-.14-.04-.21-.07-.25-.11-.2-.47-.24-.74-.23-1.5-6.7.03-7.58.68a11 11 0 0 1 4.51-1.98c.9-.17 1.81-.23 2.7-.43.13-.03.27-.07.36-.16.17-.19.07-.52-.13-.67-.16-.11-1.61-.53-1.73-.45a7 7 0 0 1 1.66-.77c-.42-.05-.81-.22-1.13-.5.74-.04 1.48-.18 2.19-.39-.95-.58-2.02-.96-3.13-1.12-.48-.07-.98.02-1.44-.04-.3-.04-.63-.28-.94-.24 1.28-.18 2.6-.34 3.85 0 1.58.42 2.97 1.61 4.51 2.01-.49.69-.75 1.57-.77 2.4-.03 1.39.94 2.95 2.45 2.83-5.08 6.56-10.78 13.18-18.69 15.45-2.18.62-4.77.86-6.9-.14" opacity="0.77"/><path fill="#A29720" d="M2.46 22.76c-.31-.15-.57-.31-.81-.47 5.81 2.14 12.04-1.28 16.5-5.02 1.33-1.11 2.62-2.29 3.8-3.56 1.56-1.68 2.6-3.57 3.82-5.48-1.48-.08-2.81.86-3.99 1.75.65-.97 1.78-1.49 2.6-2.31.2-.2.4-.5.28-.76-.19-.41-.94-.3-1.06-.73l.78-.66a.78.78 0 0 0-.5-.27c.19-.55 1.05-.73 1.07-1.31.01-.38-.36-.65-.72-.77s-.76-.19-1.01-.46c.63-.11 1.27-.12 1.9-.01-.32-.05-.85-1.43-1.28-1.66.85.45 1.68.94 2.55 1.16-.49.69-.75 1.57-.77 2.4-.03 1.39.94 2.95 2.45 2.83-5.08 6.56-10.78 13.18-18.69 15.45-2.2.64-4.79.88-6.92-.12" opacity="0.68"/><path fill="#8A720B" d="M2.46 22.76c-.31-.15-.57-.31-.81-.47 5.81 2.14 12.04-1.28 16.5-5.02 2.48-2.08 4.62-3.89 6.26-6.72.54-.92 1.07-1.84 1.61-2.76.04-.07.09-.15.1-.24.03-.21-.18-.4-.39-.44s-.43.03-.63.1c.22-.15.45-.31.58-.54s.13-.56-.08-.73c-.16-.13-.38-.13-.58-.13-.69.01-1.38.01-2.07.02l2.4-.99c-.24-.23-.2-.62-.2-.95 0-.34-.15-.76-.48-.77.3-.11.59-.22.89-.33-.14-.33-.29-.63-.32-.98.1.04 1.07.48 1.12.4-.49.69-.75 1.57-.77 2.4-.03 1.39.94 2.95 2.45 2.83C22.96 14 17.26 20.62 9.35 22.89c-2.17.63-4.76.87-6.89-.13" opacity="0.75"/><path fill="#FFF69E" d="M27.95 3.71c.14 0 .28 0 .4.06.12.05.23.18.22.31 0 .08-.04.15-.08.21-.33.55-.73 1.06-1.19 1.5-.24.23-.57.45-.87.32-.24-.1-.34-.39-.38-.65C26 5.2 26 4.92 26 4.65c0-.54 0-1.34.5-1.71.67-.49 1.48-.04 1.45.77" opacity="0.42"/><path fill="#FBEF95" d="M27.35 3.26c.11-.02.27-.01.29.1.02.08-.06.16-.05.24.01.12.19.18.2.3.01.06-.04.12-.08.17-.29.35-.6.68-.93 1-.16.16-.4.31-.58.18-.08-.06-.12-.17-.14-.28-.17-.99.35-1.55 1.29-1.71"/><path fill="#BFB939" d="M4.28 10.73c1-1.42 2.27-2.68 3.85-3.41-1.85 1.73-3.44 3.73-4.75 5.89-.17.29-.34.57-.5.86-.14.26-.36.47-.49.72-.42.83-.75 1.7-.99 2.6-.05.19-.1.38-.21.53.09-.13.03-.68.06-.86.05-.33.13-.66.23-.98.2-.59.57-1.08.8-1.64.53-1.29 1.19-2.55 2-3.71m3.97-6.38c1.31-1.13 2.86-2.04 4.56-2.37a28 28 0 0 0-6.04 4.55c-.24.24-.47.47-.7.72-.2.21-.47.36-.65.57-.61.7-1.14 1.47-1.6 2.28-.09.17-.19.34-.33.46.12-.1.2-.65.26-.82.13-.31.28-.61.46-.89.34-.52.82-.9 1.18-1.4.85-1.12 1.79-2.18 2.86-3.1M3.17 15.34c.8-1.02 1.81-1.92 3.02-2.42a21 21 0 0 0-3.79 4.23c-.13.2-.27.41-.4.62-.12.19-.29.34-.39.52-.34.6-.62 1.24-.83 1.89-.04.14-.09.27-.18.39.07-.09.04-.5.07-.63.05-.24.12-.48.21-.71.17-.43.47-.78.66-1.19.44-.96.98-1.87 1.63-2.7m13.74-.99c-.91 1.05-2.03 1.96-3.35 2.42a22.5 22.5 0 0 0 4.75-4.98c.13-.2.33-.35.45-.53.4-.63.73-1.3 1-1.99.05-.14.11-.29.21-.41-.09.1-.08.54-.11.68-.06.26-.15.51-.26.76-.2.46-.54.81-.77 1.25-.55.99-1.18 1.94-1.92 2.8" opacity="0.34"/></g><defs><clipPath id="a"><path fill="#fff" d="M0 0h30.18v23.44H0z"/></clipPath></defs></svg>