<svg xmlns="http://www.w3.org/2000/svg" width="43" height="41" fill="none"><g clip-path="url(#a)" filter="url(#b)"><path fill="#FFC40C" d="M27.506 33.022c-1.719 1.204-3.63 2.012-5.409 1.676-1.707-.31-3.237-1.735-4.43-2.86-2.453-2.37-3.808-3.758-5.484-6.632-1.317-2.268-2.822-4.537-3.533-7.1-.63-2.194-.293-4.565-1.38-6.614-1.36-2.555-1.288-2.976 1.518-3.648 8.818-2.155 14.27-1.768 22.263 2.822 3.662 2.12 6.105 3.85 5.277 8.197-.657 3.433-2.486 7.346-4.607 10.098-1.036 1.29-2.517 2.877-4.215 4.061"/><path fill="#FFFA50" d="M24.736 25.712c1.673-1.45 3.17-3.263 3.688-4.687 1.174-3.15-3.635-5.823-6.002-6.576a119 119 0 0 0-10.084-2.697c1.439-.397 2.928-.6 4.436-.634 3.254-.089 6.543.133 9.666.81 3.386.732 7.628 1.667 7.96 5.975.222 3.09-1.011 5.662-2.221 8.392-1.209 2.69-4.51 4.795-7.259 5.61-.684.211-1.44.18-2.245.022-4.137-.856-5.71-3.936-7.331-7.48-.542-1.214-.864-2.551-1.54-3.692-.722-1.238-1.983-2.809-2.86-4.361 1.878 1.32 3.467 3.729 4.818 5.535 1.115 1.49 2.232 3.049 3.693 4.218 2.04 1.651 3.353 1.194 5.28-.435"/><path fill="#FFE62E" d="M11.071 16.562c-1.058-1.239-2.382-3.266-1.314-4.422.993-1.061 3.78-.792 5.012-.587 1.907.315 3.743.862 5.607 1.297 1.517.35 2.847.36 4.223 1.172 2.597 1.528 4.73 2.888 3.984 6.085-.94 4.062-6.89 10.04-11.157 6.209-1.524-1.368-1.61-3.053-2.416-4.728-.778-1.639-2.024-3.028-3.29-4.288-.171-.198-.405-.446-.649-.738"/><path fill="#EF9818" d="M22.097 34.698c-1.707-.31-3.237-1.735-4.43-2.86-2.453-2.37-3.808-3.758-5.484-6.632-1.317-2.268-2.822-4.537-3.533-7.1-.302-1.059-.382-2.172-.507-3.274.171.604.346 1.197.612 1.727.924 1.976 1.838 4.057 3.158 5.798.02.02.04.041.047.058 1.961 3.682 4.868 7.247 7.828 8 4.987 1.26 10.345-2.276 12.403-6.853 2.969-6.562-1.298-11.056-7.535-12.88C19.251 9.092 12.1 7.41 6.581 9.425c-.068.003-.108.001-.165.008-.088-.832.583-1.156 2.372-1.59 8.818-2.154 14.27-1.767 22.263 2.823 3.662 2.12 6.105 3.85 5.277 8.197-.657 3.433-2.486 7.346-4.607 10.098-1.012 1.298-2.505 2.882-4.192 4.07-1.754 1.19-3.654 2.003-5.432 1.667"/><path fill="#fff" d="M28.59 26.452c-1.225 1.329-2.776 2.295-4.592 2.989-1.825.718-3.07.102-1.01-1.113 3.341-1.995 5.082-3.15 6.323-6.926.34-.973.445-3.849 1.27-4.117 1.64 1.491.694 4.534-.073 6.233a10.6 10.6 0 0 1-1.917 2.934M11.234 14.006a2.1 2.1 0 0 0-.07.638c.059.578.49 1.209.82 1.668.305.423.763.793.824 1.33-.596.081-1.455-1.113-1.764-1.523-.436-.58-.867-1.21-1.095-1.917-.173-.524-.213-1.08.086-1.568.286-.451.756-.781 1.183-.287.365.404.137 1.067.016 1.66"/></g><defs><clipPath id="a"><path fill="#fff" d="M29.775 37.561 0 26.718 9.002 2l29.774 10.843z"/></clipPath><filter id="b" width="50.7762" height="47.5614" x="-5.99997" y="-4" color-interpolation-filters="sRGB" filterUnits="userSpaceOnUse"><feFlood flood-opacity="0" result="BackgroundImageFix"/><feBlend in="SourceGraphic" in2="BackgroundImageFix" result="shape"/><feGaussianBlur result="effect1_foregroundBlur_95_6258" stdDeviation="3"/></filter></defs></svg>